<svg xmlns="http://www.w3.org/2000/svg" width="156.574" height="90.132" viewBox="0 0 156.574 90.132">
  <g id="Testimonials_Icons_Set2" data-name="Testimonials Icons Set2" transform="translate(13031.5 15050.066)">
    <path id="Path_300" data-name="Path 300" d="M23.566-89.625Q17.6-88.5,15.176-80.975a23.651,23.651,0,0,0-1.211,7.353,5.306,5.306,0,0,0,.043.735q.043.3.13,1.341h9.429v18.857H5.142V-70.076q0-12.8,5.1-19.722a18.942,18.942,0,0,1,13.321-7.958Zm29.151,0a9.7,9.7,0,0,0-7.223,5.363,21.937,21.937,0,0,0-2.465,10.553q0,.519.043,1.038a5.9,5.9,0,0,0,.216,1.124h9.429v18.857H34.206V-70.076a38.366,38.366,0,0,1,4.325-18.381q4.325-8.088,14.186-9.3Z" transform="translate(-13036.642 -14952.311)" fill="#fdcf3c"/>
    <path id="Path_669" data-name="Path 669" d="M34.292-60.821q5.968-1.124,8.39-8.65a23.65,23.65,0,0,0,1.211-7.352,5.306,5.306,0,0,0-.043-.735q-.043-.3-.13-1.341H34.292V-97.756H52.716V-80.37q0,12.8-5.1,19.722a18.941,18.941,0,0,1-13.321,7.958Zm-29.15,0a9.7,9.7,0,0,0,7.223-5.363,21.936,21.936,0,0,0,2.465-10.553q0-.519-.043-1.038A5.9,5.9,0,0,0,14.57-78.9H5.142V-97.756H23.652V-80.37a38.366,38.366,0,0,1-4.325,18.381Q15-53.9,5.142-52.691Z" transform="translate(-12927.642 -14907.244)" fill="#fdcf3c"/>
  </g>
</svg>
