<svg id="Services_Activities_lcons_set2" data-name="Services &amp; Activities lcons set2" xmlns="http://www.w3.org/2000/svg" xmlns:xlink="http://www.w3.org/1999/xlink" width="96.633" height="95.691" viewBox="0 0 96.633 95.691">
  <defs>
    <linearGradient id="linear-gradient" x1="0.5" x2="0.5" y2="1" gradientUnits="objectBoundingBox">
      <stop offset="0" stop-color="#43a937"/>
      <stop offset="1" stop-color="#233872"/>
    </linearGradient>
  </defs>
  <path id="Path_153" data-name="Path 153" d="M361.906,272.706a1.416,1.416,0,1,0-2-2,2.323,2.323,0,0,1-3.285,0,1.416,1.416,0,0,0-2,2,5.154,5.154,0,0,0,7.29,0Z" transform="translate(-287.351 -219.747)" fill="url(#linear-gradient)"/>
  <path id="Path_154" data-name="Path 154" d="M331.616,228.745a3.752,3.752,0,0,0-5.165,0,1.415,1.415,0,1,0,1.965,2.037.909.909,0,0,1,1.235,0,1.415,1.415,0,0,0,1.965-2.037Z" transform="translate(-264.487 -185.208)" fill="url(#linear-gradient)"/>
  <path id="Path_155" data-name="Path 155" d="M395.844,230.779a.912.912,0,0,1,1.24,0,1.415,1.415,0,1,0,1.965-2.037,3.756,3.756,0,0,0-5.171,0,1.415,1.415,0,0,0,1.965,2.037Z" transform="translate(-319.189 -185.204)" fill="url(#linear-gradient)"/>
  <path id="Path_156" data-name="Path 156" d="M228.858,372.113a1.415,1.415,0,0,0,1.416-1.416v-.9a1.415,1.415,0,1,0-2.831,0v.9A1.415,1.415,0,0,0,228.858,372.113Z" transform="translate(-184.516 -299.325)" fill="url(#linear-gradient)"/>
  <path id="Path_157" data-name="Path 157" d="M271.346,372.113a1.415,1.415,0,0,0,1.415-1.416v-.9a1.415,1.415,0,1,0-2.831,0v.9A1.416,1.416,0,0,0,271.346,372.113Z" transform="translate(-218.985 -299.325)" fill="url(#linear-gradient)"/>
  <path id="Path_158" data-name="Path 158" d="M96.589,171.171l-1.693-13.1a12.809,12.809,0,0,0-1.872-5.379,1.416,1.416,0,0,0-2.378,1.536,9.879,9.879,0,0,1,1.442,4.205l1.655,12.807H84.114V165.23a1.416,1.416,0,0,0-2.831,0v6.014h-18c-1.487-2.327-4.13-3.3-6.505-3.977l-.055-.015c-.372-.106-.738-.2-1.089-.3-.228-.06-.453-.121-.672-.181-.257-.07-.47-.417-.638-.783,3.45-2.372,6.011-6.405,6.011-9.927v-3.191a16.316,16.316,0,0,0-.406-3.7c.462-.128,1.695-.457,1.848-.5l6.456,4.375a3.907,3.907,0,0,0,5.349,0l6.458-4.377c.126.036.257.07.385.1a36.7,36.7,0,0,1,5.8,1.885,1.416,1.416,0,1,0,1.176-2.576,38.992,38.992,0,0,0-6.251-2.046c-.331-.089-.662-.18-.993-.27-.764-.209-1.228-1.171-1.546-1.986,5.075-3.289,8.9-9.134,8.9-14.213v-11.09c0-5.7-4.309-10.842-10.976-13.112a18.244,18.244,0,0,0-8.333-.888,10.412,10.412,0,0,0-6.431,3.227c-3.122.49-7.658,2.908-7.5,12.844,0,.1,0,9.019,0,9.019,0,5.077,3.838,10.926,8.931,14.217-.319.816-.782,1.773-1.547,1.982-.036.01-.072.022-.106.035-.317.085-2,.534-2.536.683a11.861,11.861,0,0,0-2.354-3.378,11.7,11.7,0,0,0-8.149-3.427h-.045a11.7,11.7,0,0,0-8.153,3.427,11.984,11.984,0,0,0-2.622,4.011c-1.131-.383-3.852-1.127-3.852-1.127-.776-.211-1.238-1.214-1.555-2.035,3.777-2.874,6.507-7.383,6.507-11.345v-3.884a1.418,1.418,0,0,0-1.317-1.414,4.9,4.9,0,0,1-3.7-1.795,4.314,4.314,0,0,0-4.677-1.536c-.661.17-1.223.319-1.708.449a12.056,12.056,0,0,1-2.71.566,12.046,12.046,0,0,1-2.712-.566c-.485-.13-1.046-.279-1.706-.449a4.323,4.323,0,0,0-4.682,1.538,4.9,4.9,0,0,1-3.694,1.793,1.416,1.416,0,0,0-1.315,1.414v3.884c0,3.96,2.729,8.47,6.505,11.345-.315.823-.778,1.823-1.555,2.035l-.4.109c-3.242.881-6.741,1.834-9.293,4.316-.611-.2-2.676-.645-2.878-.695a6.974,6.974,0,0,1,.555-.942c3.154-4.656,4.441-11.418,4.441-23.342,0-6.288,2.7-10.478,5.328-10.9l.117-.017a2.172,2.172,0,0,0,1.78-1.131c1.727-3.324,6.673-5.181,12.032-4.518s11.754,4.1,13.566,11.739a28.5,28.5,0,0,1,.64,4.826,97.9,97.9,0,0,0,.461,10.593,1.415,1.415,0,0,0,2.814-.31,95.751,95.751,0,0,1-.444-10.327c0-.028,0-.059,0-.087a31.175,31.175,0,0,0-.712-5.345c-2.148-9.057-9.659-13.119-15.974-13.9-6.436-.8-12.281,1.478-14.7,5.677l-.028.006c-4.465.713-7.7,6.471-7.7,13.69,0,11.307-1.146,17.609-3.952,21.753-.781,1.153-1.512,2.5-1,3.746.506,1.231,1.816,1.489,2.869,1.695l.2.042c.259.051.5.1.734.16A14.444,14.444,0,0,0,2.3,158.2L.625,171.181a2.6,2.6,0,0,0,.491,2.131,2.691,2.691,0,0,0,2.086.762H32.638a10.518,10.518,0,0,0-.134,1.712v2.756a2.26,2.26,0,0,0,2.257,2.257H62.208a2.26,2.26,0,0,0,2.257-2.257v-2.756a10.311,10.311,0,0,0-.134-1.712H94a2.321,2.321,0,0,0,2.591-2.9Zm-24.62-20.447c-.017.011-.034.023-.051.036-.578.428-.859.519-.993.519h-.019a.063.063,0,0,1-.019,0c-.134,0-.415-.091-.993-.519a.491.491,0,0,0-.051-.036l-5.311-3.6a7.4,7.4,0,0,0,1.173-1.978c.3.132.6.258.9.37a11.215,11.215,0,0,0,8.593,0c.3-.113.605-.239.9-.372a7.417,7.417,0,0,0,1.172,1.978Zm-9.343-40.269a1.416,1.416,0,0,0,1-.546c1.515-1.968,4.062-2.754,6.762-2.754a16.555,16.555,0,0,1,5.237.9c4.178,1.422,9.058,5.008,9.058,10.432V124.3H83.332c-2.258,0-3.668-1.323-5.453-3-2.153-2.02-4.594-4.309-8.955-4.309H64.11c-3.832,0-4.463,3.081-4.88,5.12-.444,2.168-.752,3.06-2.128,3.256,0,0,0-4.753,0-4.866-.068-4.357.836-9.639,5.528-10.054ZM57.1,129.573v-1.355c3.835-.333,4.473-3.438,4.9-5.532.474-2.316.725-2.857,2.107-2.857h4.813c3.241,0,5.076,1.721,7.018,3.543,1.881,1.764,4.012,3.763,7.39,3.763H84.68v2.437c0,5.012-4.888,11.223-10.463,13.291a8.417,8.417,0,0,1-6.622,0C62,140.789,57.1,134.579,57.1,129.573ZM40.049,148.934a8.722,8.722,0,0,1,16.218-1.589,10.532,10.532,0,0,1,.946,2.667q.11.507.179,1.051a3.752,3.752,0,0,1-.991-.745c-.085-.083-.17-.168-.257-.257a3.982,3.982,0,0,0-2.727-1.483,5.5,5.5,0,0,0-1.739.237c-.567.151-1.13.316-1.7.464a4.844,4.844,0,0,1-1.852.253,22.113,22.113,0,0,1-2.659-.657,4.719,4.719,0,0,0-2.83-.119,4.867,4.867,0,0,0-1.812,1.308,4.6,4.6,0,0,1-1.244,1A10.741,10.741,0,0,1,40.049,148.934Zm-.578,5.152a6.514,6.514,0,0,0,3.378-2.044c.212-.217.459-.546.769-.628a2.144,2.144,0,0,1,1,.164c.852.225,1.7.477,2.562.658a5.981,5.981,0,0,0,2.1.09,21.651,21.651,0,0,0,2.436-.582l.758-.2a3.206,3.206,0,0,1,.682-.147c.407-.013.7.382.957.645a6.539,6.539,0,0,0,3.382,2.044v1.978c0,3.222-3.288,7.376-6.9,8.714a6.38,6.38,0,0,1-1.751.419,5.611,5.611,0,0,1-2.488-.421c-.1-.038-.2-.076-.3-.117-3.488-1.448-6.594-5.46-6.594-8.595v-1.978Zm13.592,14.842-3.882,2.28c-.017.011-.036.021-.053.032l-.006,0c-.625.4-.651.4-1.287-.006-.017-.009-.032-.019-.049-.03l-2.386-1.4-1.5-.878a4.535,4.535,0,0,0,1.234-1.595c.079.032.159.066.24.1.106.04.211.077.315.113a8.53,8.53,0,0,0,2.789.5h0a8.788,8.788,0,0,0,3.1-.615c.081-.03.16-.064.242-.1a4.513,4.513,0,0,0,1.234,1.593ZM13.4,132.616v-2.652a7.624,7.624,0,0,0,4.2-2.459c.81-.827,1-1.023,1.955-.776.651.166,1.2.313,1.684.442a13.494,13.494,0,0,0,3.441.662,13.494,13.494,0,0,0,3.441-.662c.477-.128,1.03-.276,1.684-.444.947-.243,1.14-.049,1.948.778a7.654,7.654,0,0,0,4.207,2.459v2.652c0,4.1-4.016,9.191-8.593,10.892a7.607,7.607,0,0,1-2.686.551,7.647,7.647,0,0,1-2.691-.549c-4.575-1.7-8.587-6.793-8.587-10.894Zm17.561,14.73-5.256,3.559-.051.036c-.912.679-1.04.679-1.952,0-.017-.011-.034-.025-.053-.036L18.4,147.346a7.2,7.2,0,0,0,1.108-1.848,13.672,13.672,0,0,0,1.5.664,10.376,10.376,0,0,0,3.677.727,10.363,10.363,0,0,0,3.671-.727,14.485,14.485,0,0,0,1.5-.664A7.17,7.17,0,0,0,30.964,147.346Zm2.727,23.9H14.59v-6.015a1.416,1.416,0,0,0-2.831,0v6.015H3.472l1.634-12.687a10.557,10.557,0,0,1,2.074-5.449,1.37,1.37,0,0,0,.209-.243c1.935-2.208,4.865-3.044,8.249-3.967l6.4,4.335a4.464,4.464,0,0,0,2.64,1.051,4.464,4.464,0,0,0,2.64-1.051l6.4-4.335c1.11.3,2.174.6,3.188.947a16.853,16.853,0,0,0-.268,3.027v3.191c0,3.524,2.559,7.555,6.005,9.927-.168.366-.379.712-.634.783l-.679.183c-.351.092-.712.189-1.081.293l-.07.021C37.809,167.942,35.177,168.924,33.691,171.243Zm27.943,6.724h-26.3v-2.182c0-3.448,1.884-4.646,5.075-5.626l5.258,3.088a2.174,2.174,0,0,0,1.283.74,3.471,3.471,0,0,0,1.536.391,3.328,3.328,0,0,0,1.344-.3,5.552,5.552,0,0,0,.808-.44l4.073-2.391,1.851-1.087a12.629,12.629,0,0,1,2.693,1.087,4.324,4.324,0,0,1,2.191,2.831,7.179,7.179,0,0,1,.187,1.712v2.182Z" transform="translate(0.003 -85.107)" fill="url(#linear-gradient)"/>
  <path id="Path_159" data-name="Path 159" d="M115.233,284.2a3.962,3.962,0,0,0,2.822,1.171h.005a3.95,3.95,0,0,0,2.815-1.173,1.415,1.415,0,0,0-2.008-2,1.138,1.138,0,0,1-.811.338h0a1.151,1.151,0,0,1-.819-.34,1.415,1.415,0,1,0-2,2Z" transform="translate(-93.148 -229.071)" fill="url(#linear-gradient)"/>
  <path id="Path_160" data-name="Path 160" d="M86.75,243.6a.788.788,0,0,1,1.076,0,1.416,1.416,0,0,0,1.97-2.033,3.632,3.632,0,0,0-5.016,0,1.415,1.415,0,0,0,1.97,2.033Z" transform="translate(-68.429 -195.633)" fill="url(#linear-gradient)"/>
  <path id="Path_161" data-name="Path 161" d="M150.849,243.6a.78.78,0,0,1,1.067,0,1.416,1.416,0,0,0,1.977-2.027,3.622,3.622,0,0,0-5.014,0,1.416,1.416,0,0,0,1.97,2.033Z" transform="translate(-120.43 -195.628)" fill="url(#linear-gradient)"/>
  <path id="Path_162" data-name="Path 162" d="M175.365,17.426l9.669,9.592a1.413,1.413,0,0,0,.124.11l.109.086a2.386,2.386,0,0,0,1.458.668h.082a2.38,2.38,0,0,0,1.449-.666l.111-.087a1.454,1.454,0,0,0,.124-.11l9.669-9.592.022-.022a9.262,9.262,0,0,0,0-12.747c-2.906-3.009-7.791-2.865-11.417.313-3.632-3.177-8.519-3.32-11.424-.312a9.261,9.261,0,0,0,0,12.745Zm2.015-10.8c2.111-2.186,5.5-1.346,7.6.55.142.129.257.239.352.329a2.015,2.015,0,0,0,1.43.731,1.969,1.969,0,0,0,1.408-.712c.1-.092.217-.207.37-.345,2.109-1.9,5.491-2.74,7.6-.555a6.406,6.406,0,0,1,.011,8.805l-9.393,9.318-9.393-9.318a6.406,6.406,0,0,1,.01-8.8Z" transform="translate(-140.188 -2.49)" fill="url(#linear-gradient)"/>
</svg>
