<svg xmlns="http://www.w3.org/2000/svg" xmlns:xlink="http://www.w3.org/1999/xlink" width="312.327" height="407.122" viewBox="0 0 312.327 407.122">
  <defs>
    <clipPath id="clip-path">
      <rect id="Rectangle_39" data-name="Rectangle 39" width="312.327" height="407.122" rx="36" transform="translate(229 2791.14)" fill="#fdcf3c"/>
    </clipPath>
  </defs>
  <g id="Activities_Icons_Set2" data-name="Activities Icons Set2" transform="translate(-229 -2791.141)" opacity="0.405" clip-path="url(#clip-path)">
    <path id="Exclusion_1" data-name="Exclusion 1" d="M-5921.5,211a70.057,70.057,0,0,1-27.441-5.54,70.489,70.489,0,0,1-11.975-6.5,70.985,70.985,0,0,1-10.434-8.609,71.006,71.006,0,0,1-8.609-10.434,70.566,70.566,0,0,1-6.5-11.975A70.055,70.055,0,0,1-5992,140.5a70.743,70.743,0,0,1,2.3-17.933,70.133,70.133,0,0,1,6.513-16.228,71.377,71.377,0,0,0,9.685.66,70.635,70.635,0,0,0,19.145-2.631,70.138,70.138,0,0,0,17.142-7.412,70.857,70.857,0,0,0,25.4-26.3,70.443,70.443,0,0,1,43.289,23.322,70.27,70.27,0,0,1,12.854,21.23A70.211,70.211,0,0,1-5851,140.5a70.055,70.055,0,0,1-5.54,27.442,70.576,70.576,0,0,1-6.5,11.975,70.984,70.984,0,0,1-8.609,10.434,70.953,70.953,0,0,1-10.434,8.609,70.5,70.5,0,0,1-11.975,6.5A70.057,70.057,0,0,1-5921.5,211Zm-61.686-104.66h0a70.443,70.443,0,0,1-43.29-23.322,70.27,70.27,0,0,1-12.854-21.23A70.207,70.207,0,0,1-6044,36.5a70.054,70.054,0,0,1,5.54-27.442,70.567,70.567,0,0,1,6.5-11.975,71.023,71.023,0,0,1,8.609-10.434,71.018,71.018,0,0,1,10.434-8.609,70.5,70.5,0,0,1,11.976-6.5A70.057,70.057,0,0,1-5973.5-34a70.058,70.058,0,0,1,27.442,5.54,70.488,70.488,0,0,1,11.975,6.5,71,71,0,0,1,10.434,8.609,71.008,71.008,0,0,1,8.609,10.434,70.567,70.567,0,0,1,6.5,11.975A70.054,70.054,0,0,1-5903,36.5a70.744,70.744,0,0,1-2.3,17.932,70.162,70.162,0,0,1-6.513,16.227A71.387,71.387,0,0,0-5921.5,70a70.638,70.638,0,0,0-19.145,2.63,70.136,70.136,0,0,0-17.142,7.412,70.854,70.854,0,0,0-25.4,26.3Z" transform="translate(6456 2760)" fill="#fff" opacity="0.4"/>
  </g>
</svg>
