<svg xmlns="http://www.w3.org/2000/svg" xmlns:xlink="http://www.w3.org/1999/xlink" width="312.327" height="407.122" viewBox="0 0 312.327 407.122">
  <defs>
    <clipPath id="clip-path">
      <rect id="Rectangle_43" data-name="Rectangle 43" width="312.327" height="407.122" rx="36" transform="translate(915 2796.14)" fill="#fff"/>
    </clipPath>
  </defs>
  <g id="Activities_Icons_Set4" data-name="Activities Icons Set4" transform="translate(-915 -2796.141)" opacity="0.405" clip-path="url(#clip-path)">
    <path id="Exclusion_3" data-name="Exclusion 3" d="M154.9,192.964a11.686,11.686,0,0,1-5.352-1.288,12.253,12.253,0,0,1-4.126-3.432,11.887,11.887,0,0,1-2.064-10.377l11.282-42.424-75.6,20.1a12.225,12.225,0,0,1-3.139.416,11.69,11.69,0,0,1-5.353-1.288,12.255,12.255,0,0,1-4.126-3.432,11.886,11.886,0,0,1-2.064-10.376L96.47,20.13a11.82,11.82,0,0,1,4.46-6.579,12.242,12.242,0,0,1,7.185-2.345,11.869,11.869,0,0,1,8.437,3.522L172,70.177l-17.357,65.266,45.136-12a12,12,0,0,0,5.4-20.083L172,70.177l3.47-13.047a11.82,11.82,0,0,1,4.46-6.579,12.241,12.241,0,0,1,7.184-2.345,11.867,11.867,0,0,1,8.437,3.522l88.629,88.628a12,12,0,0,1-5.4,20.083L158.043,192.548A12.224,12.224,0,0,1,154.9,192.964Z" transform="translate(1044.651 2734.817)" fill="#fff"/>
  </g>
</svg>
