<svg xmlns="http://www.w3.org/2000/svg" xmlns:xlink="http://www.w3.org/1999/xlink" width="1366" height="700" viewBox="0 0 1366 700">
  <defs>
    <clipPath id="clip-path">
      <rect x="-31" width="89" height="213" fill="none"/>
    </clipPath>
    <clipPath id="clip-path-2">
      <rect width="101" height="248" fill="none"/>
    </clipPath>
    <clipPath id="clip-path-3">
      <rect x="185" y="-7" width="113" height="293" fill="none"/>
    </clipPath>
  </defs>
  <g id="Bg3" transform="translate(0 -1204)">
    <g id="Scroll_Group_16" data-name="Scroll Group 16" transform="translate(1308 1691)" clip-path="url(#clip-path)" style="isolation: isolate">
      <circle id="Ellipse_44" data-name="Ellipse 44" cx="100" cy="100" r="100" fill="#fdcf3c" opacity="0.3"/>
    </g>
    <g id="Repeat_Grid_1" data-name="Repeat Grid 1" transform="translate(1265 1543)" opacity="0.3" clip-path="url(#clip-path-2)">
      <g transform="translate(-13396 -2022)">
        <circle id="Ellipse_37" data-name="Ellipse 37" cx="4" cy="4" r="4" transform="translate(13507 2022)" fill="#0d3c47"/>
        <circle id="Ellipse_38" data-name="Ellipse 38" cx="4" cy="4" r="4" transform="translate(13470 2022)" fill="#0d3c47"/>
        <circle id="Ellipse_39" data-name="Ellipse 39" cx="4" cy="4" r="4" transform="translate(13433 2022)" fill="#0d3c47"/>
        <circle id="Ellipse_40" data-name="Ellipse 40" cx="4" cy="4" r="4" transform="translate(13396 2022)" fill="#0d3c47"/>
      </g>
      <g transform="translate(-13396 -1985)">
        <circle id="Ellipse_37-2" data-name="Ellipse 37" cx="4" cy="4" r="4" transform="translate(13507 2022)" fill="#0d3c47"/>
        <circle id="Ellipse_38-2" data-name="Ellipse 38" cx="4" cy="4" r="4" transform="translate(13470 2022)" fill="#0d3c47"/>
        <circle id="Ellipse_39-2" data-name="Ellipse 39" cx="4" cy="4" r="4" transform="translate(13433 2022)" fill="#0d3c47"/>
        <circle id="Ellipse_40-2" data-name="Ellipse 40" cx="4" cy="4" r="4" transform="translate(13396 2022)" fill="#0d3c47"/>
      </g>
      <g transform="translate(-13396 -1948)">
        <circle id="Ellipse_37-3" data-name="Ellipse 37" cx="4" cy="4" r="4" transform="translate(13507 2022)" fill="#0d3c47"/>
        <circle id="Ellipse_38-3" data-name="Ellipse 38" cx="4" cy="4" r="4" transform="translate(13470 2022)" fill="#0d3c47"/>
        <circle id="Ellipse_39-3" data-name="Ellipse 39" cx="4" cy="4" r="4" transform="translate(13433 2022)" fill="#0d3c47"/>
        <circle id="Ellipse_40-3" data-name="Ellipse 40" cx="4" cy="4" r="4" transform="translate(13396 2022)" fill="#0d3c47"/>
      </g>
      <g transform="translate(-13396 -1911)">
        <circle id="Ellipse_37-4" data-name="Ellipse 37" cx="4" cy="4" r="4" transform="translate(13507 2022)" fill="#0d3c47"/>
        <circle id="Ellipse_38-4" data-name="Ellipse 38" cx="4" cy="4" r="4" transform="translate(13470 2022)" fill="#0d3c47"/>
        <circle id="Ellipse_39-4" data-name="Ellipse 39" cx="4" cy="4" r="4" transform="translate(13433 2022)" fill="#0d3c47"/>
        <circle id="Ellipse_40-4" data-name="Ellipse 40" cx="4" cy="4" r="4" transform="translate(13396 2022)" fill="#0d3c47"/>
      </g>
      <g transform="translate(-13396 -1874)">
        <circle id="Ellipse_37-5" data-name="Ellipse 37" cx="4" cy="4" r="4" transform="translate(13507 2022)" fill="#0d3c47"/>
        <circle id="Ellipse_38-5" data-name="Ellipse 38" cx="4" cy="4" r="4" transform="translate(13470 2022)" fill="#0d3c47"/>
        <circle id="Ellipse_39-5" data-name="Ellipse 39" cx="4" cy="4" r="4" transform="translate(13433 2022)" fill="#0d3c47"/>
        <circle id="Ellipse_40-5" data-name="Ellipse 40" cx="4" cy="4" r="4" transform="translate(13396 2022)" fill="#0d3c47"/>
      </g>
      <g transform="translate(-13396 -1837)">
        <circle id="Ellipse_37-6" data-name="Ellipse 37" cx="4" cy="4" r="4" transform="translate(13507 2022)" fill="#0d3c47"/>
        <circle id="Ellipse_38-6" data-name="Ellipse 38" cx="4" cy="4" r="4" transform="translate(13470 2022)" fill="#0d3c47"/>
        <circle id="Ellipse_39-6" data-name="Ellipse 39" cx="4" cy="4" r="4" transform="translate(13433 2022)" fill="#0d3c47"/>
        <circle id="Ellipse_40-6" data-name="Ellipse 40" cx="4" cy="4" r="4" transform="translate(13396 2022)" fill="#0d3c47"/>
      </g>
      <g transform="translate(-13396 -1800)">
        <circle id="Ellipse_37-7" data-name="Ellipse 37" cx="4" cy="4" r="4" transform="translate(13507 2022)" fill="#0d3c47"/>
        <circle id="Ellipse_38-7" data-name="Ellipse 38" cx="4" cy="4" r="4" transform="translate(13470 2022)" fill="#0d3c47"/>
        <circle id="Ellipse_39-7" data-name="Ellipse 39" cx="4" cy="4" r="4" transform="translate(13433 2022)" fill="#0d3c47"/>
        <circle id="Ellipse_40-7" data-name="Ellipse 40" cx="4" cy="4" r="4" transform="translate(13396 2022)" fill="#0d3c47"/>
      </g>
    </g>
    <g id="Scroll_Group_15" data-name="Scroll Group 15" transform="translate(-185 1211)" clip-path="url(#clip-path-3)" style="isolation: isolate">
      <circle id="Ellipse_33" data-name="Ellipse 33" cx="143" cy="143" r="143" fill="#acdfec"/>
    </g>
  </g>
</svg>
