<svg xmlns="http://www.w3.org/2000/svg" xmlns:xlink="http://www.w3.org/1999/xlink" width="101" height="248" viewBox="0 0 101 248">
  <defs>
    <clipPath id="clip-path">
      <rect width="101" height="248" fill="none"/>
    </clipPath>
  </defs>
  <g id="Repeat_Grid_1" data-name="Repeat Grid 1" opacity="0.404" clip-path="url(#clip-path)">
    <g transform="translate(-13396 -2022)">
      <circle id="Ellipse_37" data-name="Ellipse 37" cx="4" cy="4" r="4" transform="translate(13507 2022)" fill="#0d3c47"/>
      <circle id="Ellipse_38" data-name="Ellipse 38" cx="4" cy="4" r="4" transform="translate(13470 2022)" fill="#0d3c47"/>
      <circle id="Ellipse_39" data-name="Ellipse 39" cx="4" cy="4" r="4" transform="translate(13433 2022)" fill="#0d3c47"/>
      <circle id="Ellipse_40" data-name="Ellipse 40" cx="4" cy="4" r="4" transform="translate(13396 2022)" fill="#0d3c47"/>
    </g>
    <g transform="translate(-13396 -1985)">
      <circle id="Ellipse_37-2" data-name="Ellipse 37" cx="4" cy="4" r="4" transform="translate(13507 2022)" fill="#0d3c47"/>
      <circle id="Ellipse_38-2" data-name="Ellipse 38" cx="4" cy="4" r="4" transform="translate(13470 2022)" fill="#0d3c47"/>
      <circle id="Ellipse_39-2" data-name="Ellipse 39" cx="4" cy="4" r="4" transform="translate(13433 2022)" fill="#0d3c47"/>
      <circle id="Ellipse_40-2" data-name="Ellipse 40" cx="4" cy="4" r="4" transform="translate(13396 2022)" fill="#0d3c47"/>
    </g>
    <g transform="translate(-13396 -1948)">
      <circle id="Ellipse_37-3" data-name="Ellipse 37" cx="4" cy="4" r="4" transform="translate(13507 2022)" fill="#0d3c47"/>
      <circle id="Ellipse_38-3" data-name="Ellipse 38" cx="4" cy="4" r="4" transform="translate(13470 2022)" fill="#0d3c47"/>
      <circle id="Ellipse_39-3" data-name="Ellipse 39" cx="4" cy="4" r="4" transform="translate(13433 2022)" fill="#0d3c47"/>
      <circle id="Ellipse_40-3" data-name="Ellipse 40" cx="4" cy="4" r="4" transform="translate(13396 2022)" fill="#0d3c47"/>
    </g>
    <g transform="translate(-13396 -1911)">
      <circle id="Ellipse_37-4" data-name="Ellipse 37" cx="4" cy="4" r="4" transform="translate(13507 2022)" fill="#0d3c47"/>
      <circle id="Ellipse_38-4" data-name="Ellipse 38" cx="4" cy="4" r="4" transform="translate(13470 2022)" fill="#0d3c47"/>
      <circle id="Ellipse_39-4" data-name="Ellipse 39" cx="4" cy="4" r="4" transform="translate(13433 2022)" fill="#0d3c47"/>
      <circle id="Ellipse_40-4" data-name="Ellipse 40" cx="4" cy="4" r="4" transform="translate(13396 2022)" fill="#0d3c47"/>
    </g>
    <g transform="translate(-13396 -1874)">
      <circle id="Ellipse_37-5" data-name="Ellipse 37" cx="4" cy="4" r="4" transform="translate(13507 2022)" fill="#0d3c47"/>
      <circle id="Ellipse_38-5" data-name="Ellipse 38" cx="4" cy="4" r="4" transform="translate(13470 2022)" fill="#0d3c47"/>
      <circle id="Ellipse_39-5" data-name="Ellipse 39" cx="4" cy="4" r="4" transform="translate(13433 2022)" fill="#0d3c47"/>
      <circle id="Ellipse_40-5" data-name="Ellipse 40" cx="4" cy="4" r="4" transform="translate(13396 2022)" fill="#0d3c47"/>
    </g>
    <g transform="translate(-13396 -1837)">
      <circle id="Ellipse_37-6" data-name="Ellipse 37" cx="4" cy="4" r="4" transform="translate(13507 2022)" fill="#0d3c47"/>
      <circle id="Ellipse_38-6" data-name="Ellipse 38" cx="4" cy="4" r="4" transform="translate(13470 2022)" fill="#0d3c47"/>
      <circle id="Ellipse_39-6" data-name="Ellipse 39" cx="4" cy="4" r="4" transform="translate(13433 2022)" fill="#0d3c47"/>
      <circle id="Ellipse_40-6" data-name="Ellipse 40" cx="4" cy="4" r="4" transform="translate(13396 2022)" fill="#0d3c47"/>
    </g>
    <g transform="translate(-13396 -1800)">
      <circle id="Ellipse_37-7" data-name="Ellipse 37" cx="4" cy="4" r="4" transform="translate(13507 2022)" fill="#0d3c47"/>
      <circle id="Ellipse_38-7" data-name="Ellipse 38" cx="4" cy="4" r="4" transform="translate(13470 2022)" fill="#0d3c47"/>
      <circle id="Ellipse_39-7" data-name="Ellipse 39" cx="4" cy="4" r="4" transform="translate(13433 2022)" fill="#0d3c47"/>
      <circle id="Ellipse_40-7" data-name="Ellipse 40" cx="4" cy="4" r="4" transform="translate(13396 2022)" fill="#0d3c47"/>
    </g>
  </g>
</svg>
