<svg xmlns="http://www.w3.org/2000/svg" xmlns:xlink="http://www.w3.org/1999/xlink" width="137.223" height="123.131" viewBox="0 0 137.223 123.131">
  <defs>
    <linearGradient id="linear-gradient" y1="0.674" x2="0.941" y2="0.661" gradientUnits="objectBoundingBox">
      <stop offset="0" stop-color="#43a937"/>
      <stop offset="1" stop-color="#233872"/>
    </linearGradient>
  </defs>
  <g id="Buy_and_Sell_" data-name="Buy and Sell  " transform="translate(16600 21082)">
    <path id="blob" d="M47.931,36.24c9.968-13.353,8.557-34.981-.376-47.3C38.716-23.378,22.26-26.2,5.9-37.3c-16.456-11-32.818-30.185-48.8-29.621-15.892.47-31.313,20.688-36.955,43.632-5.736,22.945-1.693,48.71,12.412,63,14.2,14.387,38.365,17.4,61.122,16.268C16.524,54.859,37.964,49.687,47.931,36.24Z" transform="translate(-16517.625 -21015.07)" fill="url(#linear-gradient)"/>
    <g id="filled" transform="translate(-16563 -21044)">
      <path id="Path_600" data-name="Path 600" d="M66.315,22.367,58.347,14.4A1.494,1.494,0,0,0,55.8,15.455v2.49H52.808V9.478A5.484,5.484,0,0,0,47.33,4H23.424a5.484,5.484,0,0,0-5.478,5.478V41.851H14.957v-2.49A1.494,1.494,0,0,0,12.407,38.3L4.438,46.273a1.494,1.494,0,0,0,0,2.113l7.969,7.969A1.5,1.5,0,0,0,14.957,55.3v-2.49h2.988v8.467a5.484,5.484,0,0,0,5.478,5.478H47.33a5.484,5.484,0,0,0,5.478-5.478V28.9H55.8v2.49a1.5,1.5,0,0,0,2.551,1.056l7.969-7.969a1.494,1.494,0,0,0,0-2.113ZM23.424,6.988H47.33a2.493,2.493,0,0,1,2.49,2.49v2.49H20.934V9.478a2.493,2.493,0,0,1,2.49-2.49ZM47.33,63.764H23.424a2.493,2.493,0,0,1-2.49-2.49v-2.49H49.82v2.49A2.493,2.493,0,0,1,47.33,63.764ZM58.784,27.785v-.377a1.494,1.494,0,0,0-1.494-1.494H45.337a1.494,1.494,0,0,0,0,2.988H49.82V55.8H20.934V52.808h4.482a1.494,1.494,0,0,0,0-2.988H13.463a1.494,1.494,0,0,0-1.494,1.494v.377L7.608,47.329l4.361-4.361v.377a1.494,1.494,0,0,0,1.494,1.494H25.416a1.494,1.494,0,0,0,0-2.988H20.934V14.957H49.82v2.988H45.337a1.494,1.494,0,0,0,0,2.988H57.29a1.494,1.494,0,0,0,1.494-1.494v-.377l4.361,4.361Z" transform="translate(-4.001 -4)" fill="#fff"/>
      <path id="Path_601" data-name="Path 601" d="M201.478,154.972h4.98a1.5,1.5,0,0,1,1.494,1.494,1.494,1.494,0,0,0,2.988,0,4.487,4.487,0,0,0-4.482-4.482h-1.494v-2.49a1.494,1.494,0,1,0-2.988,0v2.49h-.5a5.478,5.478,0,0,0,0,10.957h3.984a2.49,2.49,0,1,1,0,4.98h-4.98a1.5,1.5,0,0,1-1.494-1.494,1.494,1.494,0,0,0-2.988,0,4.487,4.487,0,0,0,4.482,4.482h1.494v2.49a1.494,1.494,0,1,0,2.988,0v-2.49h.5a5.478,5.478,0,1,0,0-10.957h-3.984a2.49,2.49,0,1,1,0-4.98Z" transform="translate(-172.094 -130.071)" fill="#fff"/>
    </g>
  </g>
</svg>
