<svg xmlns="http://www.w3.org/2000/svg" xmlns:xlink="http://www.w3.org/1999/xlink" width="137.223" height="123.131" viewBox="0 0 137.223 123.131">
  <defs>
    <linearGradient id="linear-gradient" y1="0.674" x2="0.941" y2="0.661" gradientUnits="objectBoundingBox">
      <stop offset="0" stop-color="#43a937"/>
      <stop offset="1" stop-color="#233872"/>
    </linearGradient>
  </defs>
  <g id="Educational_Courses" data-name="Educational Courses" transform="translate(16232 21304)">
    <path id="blob" d="M47.931,36.24c9.968-13.353,8.557-34.981-.376-47.3C38.716-23.378,22.26-26.2,5.9-37.3c-16.456-11-32.818-30.185-48.8-29.621-15.892.47-31.313,20.688-36.955,43.632-5.736,22.945-1.693,48.71,12.412,63,14.2,14.387,38.365,17.4,61.122,16.268C16.524,54.859,37.964,49.687,47.931,36.24Z" transform="translate(-16149.624 -21237.07)" fill="url(#linear-gradient)"/>
    <g id="_017---Online-Course" data-name="017---Online-Course" transform="translate(-16196 -21268.561)">
      <path id="Shape" d="M54.493,0H4.954A4.96,4.96,0,0,0,0,4.954V54.493a4.96,4.96,0,0,0,4.954,4.954H54.493a4.96,4.96,0,0,0,4.954-4.954V4.954A4.96,4.96,0,0,0,54.493,0ZM4.954,1.982H54.493a2.972,2.972,0,0,1,2.972,2.972V7.926H1.982V4.954A2.972,2.972,0,0,1,4.954,1.982ZM54.493,57.466H4.954a2.972,2.972,0,0,1-2.972-2.972V9.908H57.466V54.493A2.972,2.972,0,0,1,54.493,57.466Z" fill="#fff"/>
      <circle id="Oval" cx="1.124" cy="1.124" r="1.124" transform="translate(4.741 3.747)" fill="#fff"/>
      <circle id="Oval-2" data-name="Oval" cx="1.124" cy="1.124" r="1.124" transform="translate(8.488 3.747)" fill="#fff"/>
      <circle id="Oval-3" data-name="Oval" cx="1.124" cy="1.124" r="1.124" transform="translate(12.984 3.747)" fill="#fff"/>
      <path id="Shape-2" data-name="Shape" d="M51.991,5.982h.991a.991.991,0,1,0,0-1.982h-.991a.991.991,0,1,0,0,1.982Z" transform="translate(-0.47 -0.037)" fill="#fff"/>
      <path id="Shape-3" data-name="Shape" d="M41.991,5.982h5.945a.991.991,0,0,0,0-1.982H41.991a.991.991,0,1,0,0,1.982Z" transform="translate(-0.378 -0.037)" fill="#fff"/>
      <path id="Shape-4" data-name="Shape" d="M49.6,12H9.972A2.972,2.972,0,0,0,7,14.972V30.825A2.972,2.972,0,0,0,9.972,33.8H49.6a2.972,2.972,0,0,0,2.972-2.972V14.972A2.972,2.972,0,0,0,49.6,12Zm.991,18.825a.991.991,0,0,1-.991.991H9.972a.991.991,0,0,1-.991-.991V14.972a.991.991,0,0,1,.991-.991H49.6a.991.991,0,0,1,.991.991Z" transform="translate(-0.064 -0.111)" fill="#fff"/>
      <path id="Shape-5" data-name="Shape" d="M29.936,16a6.936,6.936,0,1,0,6.936,6.936A6.936,6.936,0,0,0,29.936,16Zm0,11.889a4.954,4.954,0,1,1,4.954-4.954A4.954,4.954,0,0,1,29.936,27.889Z" transform="translate(-0.212 -0.147)" fill="#fff"/>
      <path id="Shape-6" data-name="Shape" d="M32.513,22.148l-2.972-1.982a.991.991,0,1,0-1.1,1.649l1.739,1.157L28.444,24.13a.991.991,0,1,0,1.1,1.649L32.516,23.8a.991.991,0,0,0,0-1.649Z" transform="translate(-0.258 -0.184)" fill="#fff"/>
      <path id="Shape-7" data-name="Shape" d="M27.807,37.982h-.991A1.982,1.982,0,0,0,24.834,36H20.871a2.959,2.959,0,0,0-1.982.759A2.959,2.959,0,0,0,16.908,36H12.945a1.982,1.982,0,0,0-1.982,1.982H9.972A2.972,2.972,0,0,0,7,40.954V52.843a2.972,2.972,0,0,0,2.972,2.972H27.807a2.972,2.972,0,0,0,2.972-2.972V40.954A2.972,2.972,0,0,0,27.807,37.982ZM12.945,47.889h3.963a.991.991,0,0,1,.991.991v.991H12.945Zm6.936.991a.991.991,0,0,1,.991-.991h3.963v1.982H19.88Zm.991-10.9h3.963v7.926H20.871a2.939,2.939,0,0,0-.991.182V38.972A.991.991,0,0,1,20.871,37.982Zm-3.963,0a.991.991,0,0,1,.991.991V46.09a2.938,2.938,0,0,0-.991-.182H12.945V37.982ZM28.8,52.843a.991.991,0,0,1-.991.991H9.972a.991.991,0,0,1-.991-.991V40.954a.991.991,0,0,1,.991-.991h.991v9.908a1.982,1.982,0,0,0,1.982,1.982H24.834a1.982,1.982,0,0,0,1.982-1.982V39.963h.991a.991.991,0,0,1,.991.991Z" transform="translate(-0.064 -0.332)" fill="#fff"/>
      <path id="Shape-8" data-name="Shape" d="M51.843,40H35.991a.991.991,0,1,0,0,1.982H51.843a.991.991,0,0,0,0-1.982Z" transform="translate(-0.322 -0.368)" fill="#fff"/>
      <path id="Shape-9" data-name="Shape" d="M44.908,52H35.991a.991.991,0,1,0,0,1.982h8.917a.991.991,0,1,0,0-1.982Z" transform="translate(-0.322 -0.479)" fill="#fff"/>
      <path id="Shape-10" data-name="Shape" d="M35.991,45.982h8.917a.991.991,0,1,0,0-1.982H35.991a.991.991,0,1,0,0,1.982Z" transform="translate(-0.322 -0.405)" fill="#fff"/>
      <path id="Shape-11" data-name="Shape" d="M35.991,49.982h1.982a.991.991,0,1,0,0-1.982H35.991a.991.991,0,1,0,0,1.982Z" transform="translate(-0.322 -0.442)" fill="#fff"/>
      <path id="Shape-12" data-name="Shape" d="M51.963,44H48.991a.991.991,0,1,0,0,1.982h2.972a.991.991,0,1,0,0-1.982Z" transform="translate(-0.442 -0.405)" fill="#fff"/>
      <path id="Shape-13" data-name="Shape" d="M51.9,48H41.991a.991.991,0,1,0,0,1.982H51.9A.991.991,0,1,0,51.9,48Z" transform="translate(-0.378 -0.442)" fill="#fff"/>
    </g>
  </g>
</svg>
