<svg xmlns="http://www.w3.org/2000/svg" xmlns:xlink="http://www.w3.org/1999/xlink" width="137.223" height="123.131" viewBox="0 0 137.223 123.131">
  <defs>
    <linearGradient id="linear-gradient" y1="0.674" x2="0.941" y2="0.661" gradientUnits="objectBoundingBox">
      <stop offset="0" stop-color="#43a937"/>
      <stop offset="1" stop-color="#233872"/>
    </linearGradient>
  </defs>
  <g id="Entertainment_Online_Game" data-name="Entertainment &amp; Online Game" transform="translate(16600 21304)">
    <path id="blob" d="M47.931,36.24c9.968-13.353,8.557-34.981-.376-47.3C38.716-23.378,22.26-26.2,5.9-37.3c-16.456-11-32.818-30.185-48.8-29.621-15.892.47-31.313,20.688-36.955,43.632-5.736,22.945-1.693,48.71,12.412,63,14.2,14.387,38.365,17.4,61.122,16.268C16.524,54.859,37.964,49.687,47.931,36.24Z" transform="translate(-16517.625 -21237.07)" fill="url(#linear-gradient)"/>
    <g id="Group_894" data-name="Group 894" transform="translate(-16565 -21268.561)">
      <path id="Path_597" data-name="Path 597" d="M56.862,42.5H47.84a1.181,1.181,0,1,0,0,2.362h9.022a1.253,1.253,0,0,1,1.252,1.252V60.679a1.253,1.253,0,0,1-1.252,1.252H44.046a2.294,2.294,0,0,1-1.756-.815L37.971,56a1.181,1.181,0,0,0-1.8,0l-4.319,5.112a2.294,2.294,0,0,1-1.756.815H17.276a1.253,1.253,0,0,1-1.252-1.252V46.111a1.253,1.253,0,0,1,1.252-1.252H41.933a1.181,1.181,0,1,0,0-2.362h-11.8L31.753,26.34h1.526a1.181,1.181,0,0,0,1.181-1.181V22.4a3.685,3.685,0,0,0-3.681-3.681H18.071V14.669A3.655,3.655,0,0,1,20.306,11.3l9.52-4.029a1.181,1.181,0,0,0-.921-2.176l-9.52,4.029a6.014,6.014,0,0,0-3.676,5.548v4.051H3.681A3.685,3.685,0,0,0,0,22.4v2.759A1.181,1.181,0,0,0,1.181,26.34H2.23L5.393,57.865a1.181,1.181,0,0,0,1.175,1.063h7.093v1.751a3.618,3.618,0,0,0,3.614,3.614H30.091a4.653,4.653,0,0,0,3.561-1.653L37.069,58.6l3.417,4.044a4.652,4.652,0,0,0,3.561,1.653H56.862a3.618,3.618,0,0,0,3.614-3.614V46.111A3.618,3.618,0,0,0,56.862,42.5Zm-43.2,5.527H6.78l-1.2-11.967H28.4l-.643,6.44H17.275a3.618,3.618,0,0,0-3.614,3.614ZM2.362,22.4a1.32,1.32,0,0,1,1.318-1.318h27.1A1.32,1.32,0,0,1,32.1,22.4v1.577H2.362Zm27.016,3.94-.738,7.355H5.342L4.6,26.34ZM7.637,56.566l-.62-6.179h6.644v6.179Z" transform="translate(0 -4.998)" fill="#fff"/>
      <path id="Path_598" data-name="Path 598" d="M161.763,369.265a1.181,1.181,0,0,0-1.181,1.181v8.542a1.181,1.181,0,0,0,1.181,1.181h8.977a1.181,1.181,0,0,0,.9-.417l4.153-4.9a1.182,1.182,0,0,0,.28-.764v-3.643a1.181,1.181,0,0,0-1.181-1.181Zm11.949,4.391-3.519,4.151h-7.249v-6.179h10.768Z" transform="translate(-141.615 -326.239)" fill="#fff"/>
      <path id="Path_599" data-name="Path 599" d="M334.838,370.446v3.643a1.181,1.181,0,0,0,.28.764l4.153,4.9a1.181,1.181,0,0,0,.9.417h8.977a1.181,1.181,0,0,0,1.181-1.181v-8.542a1.181,1.181,0,0,0-1.181-1.181h-13.13A1.181,1.181,0,0,0,334.838,370.446Zm2.362,1.181h10.768v6.179h-7.249l-3.519-4.151Z" transform="translate(-295.288 -326.239)" fill="#fff"/>
    </g>
  </g>
</svg>
