<svg xmlns="http://www.w3.org/2000/svg" xmlns:xlink="http://www.w3.org/1999/xlink" width="137.223" height="123.131" viewBox="0 0 137.223 123.131">
  <defs>
    <linearGradient id="linear-gradient" y1="0.674" x2="0.941" y2="0.661" gradientUnits="objectBoundingBox">
      <stop offset="0" stop-color="#43a937"/>
      <stop offset="1" stop-color="#233872"/>
    </linearGradient>
  </defs>
  <g id="Family_Social_Welfare" data-name="Family &amp; Social  Welfare" transform="translate(16600 21526)">
    <path id="blob" d="M47.931,36.24c9.968-13.353,8.557-34.981-.376-47.3C38.716-23.378,22.26-26.2,5.9-37.3c-16.456-11-32.818-30.185-48.8-29.621-15.892.47-31.313,20.688-36.955,43.632-5.736,22.945-1.693,48.71,12.412,63,14.2,14.387,38.365,17.4,61.122,16.268C16.524,54.859,37.964,49.687,47.931,36.24Z" transform="translate(-16517.625 -21459.07)" fill="url(#linear-gradient)"/>
    <g id="family" transform="translate(-16569 -21496)">
      <path id="Path_153" data-name="Path 153" d="M360.186,272.167a1.1,1.1,0,1,0-1.556-1.554,1.8,1.8,0,0,1-2.552,0,1.1,1.1,0,1,0-1.556,1.554,4,4,0,0,0,5.663,0Z" transform="translate(-302.272 -231.028)" fill="#fff"/>
      <path id="Path_154" data-name="Path 154" d="M330.367,228.515a2.915,2.915,0,0,0-4.013,0,1.1,1.1,0,1,0,1.527,1.583.706.706,0,0,1,.959,0,1.1,1.1,0,1,0,1.527-1.583Z" transform="translate(-278.22 -194.695)" fill="#fff"/>
      <path id="Path_155" data-name="Path 155" d="M395.309,230.094a.709.709,0,0,1,.963,0,1.1,1.1,0,1,0,1.527-1.583,2.918,2.918,0,0,0-4.017,0,1.1,1.1,0,0,0,1.527,1.583Z" transform="translate(-335.763 -194.691)" fill="#fff"/>
      <path id="Path_156" data-name="Path 156" d="M228.543,371.28a1.1,1.1,0,0,0,1.1-1.1v-.7a1.1,1.1,0,1,0-2.2,0v.7A1.1,1.1,0,0,0,228.543,371.28Z" transform="translate(-194.097 -314.738)" fill="#fff"/>
      <path id="Path_157" data-name="Path 157" d="M271.031,371.28a1.1,1.1,0,0,0,1.1-1.1v-.7a1.1,1.1,0,1,0-2.2,0v.7A1.1,1.1,0,0,0,271.031,371.28Z" transform="translate(-230.356 -314.738)" fill="#fff"/>
      <path id="Path_158" data-name="Path 158" d="M75.03,156.252l-1.315-10.174a9.95,9.95,0,0,0-1.454-4.178,1.1,1.1,0,1,0-1.847,1.193,7.674,7.674,0,0,1,1.12,3.266l1.286,9.949h-7.48v-4.672a1.1,1.1,0,0,0-2.2,0v4.672H49.157C48,154.5,45.949,153.741,44.1,153.219l-.043-.012c-.289-.082-.573-.157-.846-.23-.177-.047-.352-.094-.522-.141-.2-.054-.365-.324-.5-.608,2.68-1.843,4.669-4.976,4.669-7.712v-2.479a12.674,12.674,0,0,0-.315-2.874c.359-.1,1.317-.355,1.435-.386l5.015,3.4a3.035,3.035,0,0,0,4.155,0l5.017-3.4c.1.028.2.054.3.081a28.506,28.506,0,0,1,4.507,1.465,1.1,1.1,0,1,0,.913-2,30.291,30.291,0,0,0-4.856-1.589c-.257-.069-.514-.14-.771-.21-.594-.162-.954-.91-1.2-1.542,3.942-2.555,6.912-7.1,6.912-11.041v-8.614c0-4.424-3.347-8.422-8.527-10.185a14.172,14.172,0,0,0-6.473-.69,8.088,8.088,0,0,0-5,2.507c-2.425.381-5.949,2.259-5.829,9.977,0,.074,0,7.006,0,7.006,0,3.944,2.982,8.487,6.938,11.044-.248.634-.608,1.378-1.2,1.54-.028.008-.056.017-.083.027-.246.066-1.555.414-1.97.53a9.214,9.214,0,0,0-1.828-2.624,9.085,9.085,0,0,0-6.33-2.662h-.035a9.091,9.091,0,0,0-6.333,2.662,9.31,9.31,0,0,0-2.036,3.115c-.878-.3-2.992-.875-2.992-.875-.6-.164-.962-.943-1.208-1.58,2.934-2.233,5.055-5.735,5.055-8.813v-3.017a1.1,1.1,0,0,0-1.023-1.1,3.806,3.806,0,0,1-2.872-1.394A3.351,3.351,0,0,0,22.6,119.6c-.513.132-.95.248-1.327.349a9.366,9.366,0,0,1-2.105.44,9.358,9.358,0,0,1-2.107-.44c-.377-.1-.812-.217-1.325-.349a3.358,3.358,0,0,0-3.637,1.195,3.8,3.8,0,0,1-2.869,1.393,1.1,1.1,0,0,0-1.022,1.1V126.3c0,3.076,2.12,6.58,5.053,8.813-.245.639-.6,1.416-1.208,1.58l-.308.085c-2.519.685-5.237,1.425-7.219,3.353-.475-.154-2.079-.5-2.236-.54a5.418,5.418,0,0,1,.431-.732c2.45-3.617,3.45-8.87,3.45-18.132,0-4.885,2.1-8.14,4.139-8.465l.091-.013a1.687,1.687,0,0,0,1.383-.878c1.341-2.582,5.184-4.024,9.346-3.51a12.012,12.012,0,0,1,10.538,9.119,22.14,22.14,0,0,1,.5,3.749,76.051,76.051,0,0,0,.358,8.229,1.1,1.1,0,0,0,2.186-.24,74.379,74.379,0,0,1-.345-8.022c0-.022,0-.045,0-.067a24.217,24.217,0,0,0-.553-4.152A14.169,14.169,0,0,0,21.4,105.68c-5-.619-9.54,1.148-11.421,4.41l-.022,0c-3.469.554-5.984,5.027-5.984,10.635,0,8.783-.89,13.678-3.07,16.9-.607.9-1.174,1.941-.776,2.91s1.41,1.157,2.228,1.317l.157.032c.2.04.39.081.57.125a11.22,11.22,0,0,0-1.3,4.162l-1.3,10.086a2.022,2.022,0,0,0,.381,1.655,2.09,2.09,0,0,0,1.62.592H25.353a8.171,8.171,0,0,0-.1,1.33v2.141A1.755,1.755,0,0,0,27,163.731H48.323a1.755,1.755,0,0,0,1.753-1.753v-2.141a8.009,8.009,0,0,0-.1-1.33H73.017a1.8,1.8,0,0,0,2.013-2.255ZM55.905,140.369l-.04.028c-.449.333-.667.4-.771.4H55.08a.049.049,0,0,1-.015,0c-.1,0-.323-.07-.771-.4a.38.38,0,0,0-.04-.028l-4.125-2.8a5.746,5.746,0,0,0,.911-1.537c.232.1.466.2.7.288a8.712,8.712,0,0,0,6.675,0c.236-.088.47-.186.7-.289a5.761,5.761,0,0,0,.911,1.537Zm-7.257-31.281a1.1,1.1,0,0,0,.774-.424,6.406,6.406,0,0,1,5.253-2.139,12.86,12.86,0,0,1,4.068.7c3.246,1.1,7.036,3.89,7.036,8.1v4.522H64.732c-1.754,0-2.849-1.027-4.236-2.328-1.673-1.569-3.569-3.347-6.956-3.347H49.8c-2.977,0-3.467,2.394-3.791,3.977-.345,1.684-.585,2.377-1.653,2.53,0,0,0-3.692,0-3.78-.053-3.385.649-7.487,4.294-7.81Zm-4.292,14.851v-1.052c2.979-.259,3.475-2.67,3.807-4.3.368-1.8.563-2.219,1.636-2.219h3.739c2.518,0,3.943,1.337,5.452,2.752,1.461,1.37,3.117,2.923,5.741,2.923h1.047v1.893c0,3.893-3.8,8.718-8.127,10.325a6.538,6.538,0,0,1-5.144,0C48.165,132.651,44.356,127.827,44.356,123.938ZM31.11,138.978a6.775,6.775,0,0,1,12.6-1.234,8.181,8.181,0,0,1,.735,2.072q.086.394.139.817a2.915,2.915,0,0,1-.77-.579c-.066-.065-.132-.13-.2-.2a3.093,3.093,0,0,0-2.119-1.152,4.274,4.274,0,0,0-1.351.184c-.44.117-.878.246-1.319.361a3.763,3.763,0,0,1-1.438.2,17.178,17.178,0,0,1-2.066-.51,3.666,3.666,0,0,0-2.2-.093,3.781,3.781,0,0,0-1.408,1.016,3.571,3.571,0,0,1-.966.777A8.344,8.344,0,0,1,31.11,138.978Zm-.449,4a5.06,5.06,0,0,0,2.624-1.588c.164-.168.357-.424.6-.488a1.666,1.666,0,0,1,.779.127c.662.174,1.32.371,1.99.511a4.646,4.646,0,0,0,1.635.07,16.816,16.816,0,0,0,1.892-.452l.589-.156a2.492,2.492,0,0,1,.53-.114c.316-.01.544.3.743.5a5.08,5.08,0,0,0,2.627,1.588v1.536c0,2.5-2.554,5.729-5.36,6.769a4.956,4.956,0,0,1-1.361.325,4.358,4.358,0,0,1-1.932-.327c-.078-.029-.154-.059-.232-.091-2.709-1.124-5.122-4.241-5.122-6.676V142.98ZM41.22,154.509,38.2,156.28l-.041.025,0,0c-.485.314-.506.314-1,0l-.038-.023-1.853-1.088-1.163-.682a3.523,3.523,0,0,0,.959-1.239c.062.025.123.051.186.075.082.031.164.06.245.088a6.626,6.626,0,0,0,2.167.39h0a6.827,6.827,0,0,0,2.41-.478c.063-.023.125-.05.188-.075a3.506,3.506,0,0,0,.959,1.237ZM10.411,126.3v-2.06a5.923,5.923,0,0,0,3.262-1.91c.629-.642.78-.795,1.519-.6.506.129.935.243,1.308.343a10.483,10.483,0,0,0,2.673.515,10.483,10.483,0,0,0,2.673-.515c.371-.1.8-.214,1.308-.345.736-.189.886-.038,1.513.6a5.946,5.946,0,0,0,3.268,1.91v2.06c0,3.186-3.12,7.14-6.675,8.461a5.909,5.909,0,0,1-2.086.428,5.94,5.94,0,0,1-2.091-.427c-3.554-1.323-6.671-5.276-6.671-8.462Zm13.642,11.443-4.083,2.765-.04.028c-.708.528-.808.528-1.516,0-.013-.009-.026-.019-.041-.028l-4.081-2.765a5.589,5.589,0,0,0,.861-1.435,10.62,10.62,0,0,0,1.164.516,8.06,8.06,0,0,0,2.856.564,8.05,8.05,0,0,0,2.852-.564,11.249,11.249,0,0,0,1.167-.516A5.569,5.569,0,0,0,24.052,137.745Zm2.119,18.563H11.333v-4.672a1.1,1.1,0,0,0-2.2,0v4.672H2.7l1.27-9.855a8.2,8.2,0,0,1,1.611-4.232,1.064,1.064,0,0,0,.163-.189c1.5-1.715,3.779-2.365,6.408-3.082l4.973,3.368a3.468,3.468,0,0,0,2.051.817,3.468,3.468,0,0,0,2.051-.817l4.971-3.368c.862.236,1.689.465,2.476.736a13.092,13.092,0,0,0-.208,2.352v2.479c0,2.737,1.988,5.869,4.665,7.712-.13.284-.295.553-.493.608l-.528.142c-.273.072-.553.147-.84.227l-.054.016C29.37,153.744,27.325,154.506,26.171,156.308Zm21.707,5.224H27.448v-1.695c0-2.679,1.463-3.609,3.942-4.37l4.084,2.4a1.689,1.689,0,0,0,1,.575,2.7,2.7,0,0,0,1.193.3,2.585,2.585,0,0,0,1.044-.236,4.313,4.313,0,0,0,.627-.342l3.164-1.858,1.438-.844a9.81,9.81,0,0,1,2.092.844,3.359,3.359,0,0,1,1.7,2.2,5.577,5.577,0,0,1,.145,1.33v1.695Z" transform="translate(0.003 -89.397)" fill="#fff"/>
      <path id="Path_159" data-name="Path 159" d="M115.14,283.659a3.078,3.078,0,0,0,2.192.909h0a3.068,3.068,0,0,0,2.187-.911,1.1,1.1,0,0,0-1.56-1.55.884.884,0,0,1-.63.262h0a.894.894,0,0,1-.636-.265,1.1,1.1,0,1,0-1.556,1.554Z" transform="translate(-97.985 -240.836)" fill="#fff"/>
      <path id="Path_160" data-name="Path 160" d="M86.214,242.926a.612.612,0,0,1,.836,0,1.1,1.1,0,0,0,1.53-1.579,2.821,2.821,0,0,0-3.9,0,1.1,1.1,0,0,0,1.53,1.579Z" transform="translate(-71.983 -205.662)" fill="#fff"/>
      <path id="Path_161" data-name="Path 161" d="M150.313,242.92a.606.606,0,0,1,.829,0,1.1,1.1,0,0,0,1.535-1.575,2.814,2.814,0,0,0-3.895,0,1.1,1.1,0,0,0,1.53,1.58Z" transform="translate(-126.684 -205.656)" fill="#fff"/>
      <path id="Path_162" data-name="Path 162" d="M174.793,14.093l7.511,7.451a1.1,1.1,0,0,0,.1.085l.085.066a1.854,1.854,0,0,0,1.133.519h.064a1.849,1.849,0,0,0,1.126-.517l.086-.068a1.127,1.127,0,0,0,.1-.085l7.511-7.451.017-.017a7.2,7.2,0,0,0,0-9.9c-2.257-2.338-6.052-2.226-8.869.243-2.821-2.468-6.618-2.579-8.874-.242a7.194,7.194,0,0,0,0,9.9ZM176.359,5.7c1.64-1.7,4.269-1.046,5.907.427.111.1.2.186.273.256a1.565,1.565,0,0,0,1.111.568,1.53,1.53,0,0,0,1.094-.553c.075-.072.168-.161.288-.268C186.67,4.655,189.3,4,190.936,5.7a4.976,4.976,0,0,1,.008,6.84l-7.3,7.238-7.3-7.238a4.976,4.976,0,0,1,.008-6.839Z" transform="translate(-147.467 -2.49)" fill="#fff"/>
    </g>
  </g>
</svg>
