<svg xmlns="http://www.w3.org/2000/svg" xmlns:xlink="http://www.w3.org/1999/xlink" width="137.223" height="123.131" viewBox="0 0 137.223 123.131">
  <defs>
    <linearGradient id="linear-gradient" y1="0.674" x2="0.941" y2="0.661" gradientUnits="objectBoundingBox">
      <stop offset="0" stop-color="#43a937"/>
      <stop offset="1" stop-color="#233872"/>
    </linearGradient>
  </defs>
  <g id="IsDB_Group_Activities" data-name="IsDB Group  Activities" transform="translate(16968 21082)">
    <path id="blob" d="M47.931,36.24c9.968-13.353,8.557-34.981-.376-47.3C38.716-23.378,22.26-26.2,5.9-37.3c-16.456-11-32.818-30.185-48.8-29.621-15.892.47-31.313,20.688-36.955,43.632-5.736,22.945-1.693,48.71,12.412,63,14.2,14.387,38.365,17.4,61.122,16.268C16.524,54.859,37.964,49.687,47.931,36.24Z" transform="translate(-16885.625 -21015.07)" fill="url(#linear-gradient)"/>
    <path id="networking" d="M50.2,25.1A12.55,12.55,0,1,0,38.841,7.252L35.48,6.012a5.077,5.077,0,0,0,.08-.782,5.275,5.275,0,1,0-.8,2.746l3.355,1.238a12.322,12.322,0,0,0,.172,7.257l-11.5,4.875a12.49,12.49,0,0,0-15.52-5.884L8.371,9.383a5.2,5.2,0,1,0-3.142,1.076,5.142,5.142,0,0,0,1.257-.171l2.889,6.073a12.529,12.529,0,0,0-.67,21.253L6.793,41.053a5.175,5.175,0,0,0-1.564-.265,5.292,5.292,0,1,0,3.392,1.282l1.917-3.446a12.445,12.445,0,0,0,12.776-1.489l4.117,4.529A12.49,12.49,0,0,0,24.055,50.2a12.632,12.632,0,0,0,.156,1.877l-4.843,1.15a5.2,5.2,0,1,0,.5,2.2c0-.058-.016-.112-.017-.17l4.834-1.146a12.545,12.545,0,1,0,22.97-9.848L53.8,40.273a5.333,5.333,0,1,0-1.136-1.757l-6.158,4a12.62,12.62,0,0,0-4.674-3.713l5.1-14.151A12.506,12.506,0,0,0,50.2,25.1ZM30.33,8.367a3.138,3.138,0,1,1,3.138-3.138A3.142,3.142,0,0,1,30.33,8.367ZM2.092,5.229A3.138,3.138,0,1,1,5.229,8.367,3.142,3.142,0,0,1,2.092,5.229ZM5.229,49.156a3.138,3.138,0,1,1,3.138-3.138A3.142,3.142,0,0,1,5.229,49.156Zm9.413,9.413a3.138,3.138,0,1,1,3.138-3.138A3.142,3.142,0,0,1,14.642,58.568Zm42.88-25.1a3.138,3.138,0,1,1-3.138,3.138A3.142,3.142,0,0,1,57.523,33.468ZM44.042,20.984a5.245,5.245,0,0,1,5.113-4.25h2.092a5.245,5.245,0,0,1,5.113,4.25,10.38,10.38,0,0,1-12.319,0ZM50.2,14.642A3.138,3.138,0,1,1,53.339,11.5,3.142,3.142,0,0,1,50.2,14.642Zm0-12.55a10.443,10.443,0,0,1,7.894,17.3,7.408,7.408,0,0,0-4.165-4.23,5.229,5.229,0,1,0-7.459,0,7.408,7.408,0,0,0-4.165,4.23A10.443,10.443,0,0,1,50.2,2.092ZM5.229,27.193a10.459,10.459,0,1,1,18.338,6.856A7.41,7.41,0,0,0,19.4,29.8a5.23,5.23,0,1,0-7.46,0,7.407,7.407,0,0,0-4.159,4.214A10.4,10.4,0,0,1,5.229,27.193Zm7.3-1.046a3.138,3.138,0,1,1,3.138,3.138A3.142,3.142,0,0,1,12.529,26.147ZM9.511,35.613a5.243,5.243,0,0,1,5.11-4.237h2.092a5.242,5.242,0,0,1,5.115,4.264,10.378,10.378,0,0,1-12.317-.028ZM30.429,58.622a5.243,5.243,0,0,1,5.11-4.237H37.63a5.242,5.242,0,0,1,5.115,4.264,10.378,10.378,0,0,1-12.317-.028Zm6.156-6.328a3.138,3.138,0,1,1,3.138-3.138A3.142,3.142,0,0,1,36.584,52.293ZM47.064,50.2a10.407,10.407,0,0,1-2.579,6.856,7.41,7.41,0,0,0-4.17-4.247,5.23,5.23,0,1,0-7.46,0A7.407,7.407,0,0,0,28.7,57.024,10.453,10.453,0,1,1,47.064,50.2ZM39.868,38.1a12.378,12.378,0,0,0-10.889,2.161l-4.117-4.529A12.459,12.459,0,0,0,27.6,23.272l11.5-4.875a12.618,12.618,0,0,0,5.868,5.549Zm0,0" transform="translate(-16932.059 -21044)" fill="#fff"/>
  </g>
</svg>
