<svg xmlns="http://www.w3.org/2000/svg" xmlns:xlink="http://www.w3.org/1999/xlink" width="137.223" height="123.131" viewBox="0 0 137.223 123.131">
  <defs>
    <linearGradient id="linear-gradient" y1="0.674" x2="0.941" y2="0.661" gradientUnits="objectBoundingBox">
      <stop offset="0" stop-color="#43a937"/>
      <stop offset="1" stop-color="#233872"/>
    </linearGradient>
  </defs>
  <g id="Religious_Activities_" data-name="Religious Activities " transform="translate(16968 21304)">
    <path id="blob" d="M47.931,36.24c9.968-13.353,8.557-34.981-.376-47.3C38.716-23.378,22.26-26.2,5.9-37.3c-16.456-11-32.818-30.185-48.8-29.621-15.892.47-31.313,20.688-36.955,43.632-5.736,22.945-1.693,48.71,12.412,63,14.2,14.387,38.365,17.4,61.122,16.268C16.524,54.859,37.964,49.687,47.931,36.24Z" transform="translate(-16885.625 -21237.07)" fill="url(#linear-gradient)"/>
    <g id="mosque" transform="translate(-16955.1 -21268.561)">
      <g id="Group_420" data-name="Group 420" transform="translate(65.258 0)">
        <g id="Group_419" data-name="Group 419">
          <path id="Path_588" data-name="Path 588" d="M389.123,28.2a.962.962,0,0,0,.962-.962V25.087h.466a.962.962,0,0,0,.962-.962V20.081a.962.962,0,0,0-.962-.962h-.466V12.845a.963.963,0,0,0-.176-.554L385.2,5.613V1a.989.989,0,0,0-.933-1,.962.962,0,0,0-.992.962v4.65l-4.706,6.678a.962.962,0,0,0-.176.554v6.274h-.466a.962.962,0,0,0-.962.962v4.044a.962.962,0,0,0,.962.962h.466V58.821h-.466a.962.962,0,0,0-.962.962v4.044a.962.962,0,0,0,.962.962h12.619a.962.962,0,0,0,.962-.962V59.783a.962.962,0,0,0-.962-.962h-.466v-27.1a.962.962,0,0,0-1.924,0v27.1h-7.839V25.087h7.839v2.146A.962.962,0,0,0,389.123,28.2Zm-8.8-15.045h0l3.919-5.562,3.919,5.562v5.969h-.71V16.463a.962.962,0,0,0-.373-.761l-2.247-1.739a.962.962,0,0,0-1.177,0L381.405,15.7a.962.962,0,0,0-.373.761v2.656h-.71V13.15Zm5.2,3.785v2.184h-2.57V16.935l1.285-.994Zm3.6,43.81h.466v2.12H378.894v-2.12h10.229ZM378.894,23.163v-2.12h10.695v2.12Z" transform="translate(-376.97 0)" fill="#fff"/>
        </g>
      </g>
      <g id="Group_422" data-name="Group 422" transform="translate(50.812 42.48)">
        <g id="Group_421" data-name="Group 421">
          <path id="Path_589" data-name="Path 589" d="M270.951,338.447l-3.294-2.548a.962.962,0,0,0-1.178,0l-3.294,2.548a.962.962,0,0,0-.373.761v5.3a.962.962,0,0,0,.962.962h6.588a.962.962,0,0,0,.962-.962v-5.3A.963.963,0,0,0,270.951,338.447Zm-6.215,5.1v-3.869l2.332-1.8,2.332,1.8v3.869Z" transform="translate(-262.812 -335.698)" fill="#fff"/>
        </g>
      </g>
      <g id="Group_424" data-name="Group 424" transform="translate(24.749 42.48)">
        <g id="Group_423" data-name="Group 423">
          <path id="Path_590" data-name="Path 590" d="M64.985,338.448,61.691,335.9a.962.962,0,0,0-1.177,0l-3.294,2.548a.962.962,0,0,0-.373.761v5.3a.962.962,0,0,0,.962.962H64.4a.962.962,0,0,0,.962-.962v-5.3A.963.963,0,0,0,64.985,338.448Zm-1.551,5.1H58.77v-3.869l2.332-1.8,2.332,1.8v3.869Z" transform="translate(-56.846 -335.699)" fill="#fff"/>
        </g>
      </g>
      <g id="Group_426" data-name="Group 426" transform="translate(20.099 0.17)">
        <g id="Group_425" data-name="Group 425">
          <path id="Path_591" data-name="Path 591" d="M63.689,42.9,59.417,38.67a11.855,11.855,0,0,0,1.824-3.6.99.99,0,0,0,.027-.118l.325-2.036a.965.965,0,0,0,.012-.142,7.353,7.353,0,0,0-.881-3.584C58.374,24.831,45.812,19.078,43,17.832V16.173A7.486,7.486,0,0,0,49.374,10.4a.962.962,0,0,0-1.539-.967,4.593,4.593,0,0,1-2.9,1.016A4.65,4.65,0,0,1,40.293,5.8a4.593,4.593,0,0,1,1.016-2.9.962.962,0,0,0-.967-1.539,7.53,7.53,0,0,0,.733,14.805v1.661c-1.239.553-4.293,1.95-7.5,3.669-5.683,3.048-9.124,5.636-10.231,7.692a7.353,7.353,0,0,0-.88,3.58.97.97,0,0,0,.012.142l.325,2.036a.989.989,0,0,0,.027.118,11.856,11.856,0,0,0,1.824,3.6L20.384,42.9a.962.962,0,0,0-.285.683V65a.962.962,0,0,0,.962.962H63.012A.962.962,0,0,0,63.974,65V43.587A.963.963,0,0,0,63.689,42.9ZM36.43,8.7A5.582,5.582,0,0,1,38.541,4.31,6.564,6.564,0,0,0,46.429,12.2a5.613,5.613,0,0,1-10-3.5ZM46.878,64.036H37.2V53.992l4.841-4.927,4.841,4.927Zm15.172,0H48.8V53.6a.962.962,0,0,0-.276-.674l-5.788-5.891a1,1,0,0,0-.332-.231.965.965,0,0,0-1.056.215l-5.8,5.907a.962.962,0,0,0-.276.674V64.036H22.023V43.988l4.321-4.282h8.809a.962.962,0,0,0,0-1.924H26.4a10.135,10.135,0,0,1-1.7-3.2l-.3-1.9a5.366,5.366,0,0,1,.652-2.582c1.82-3.382,12.525-8.631,16.989-10.591,1.047.463,4.4,1.976,7.935,3.9,2.878,1.562,7.882,4.51,9.061,6.694a5.369,5.369,0,0,1,.653,2.584l-.3,1.9a10.136,10.136,0,0,1-1.7,3.2H39.645a.962.962,0,1,0,0,1.924H57.729l4.321,4.282Z" transform="translate(-20.099 -1.341)" fill="#fff"/>
        </g>
      </g>
    </g>
  </g>
</svg>
