<svg xmlns="http://www.w3.org/2000/svg" xmlns:xlink="http://www.w3.org/1999/xlink" width="137.223" height="123.131" viewBox="0 0 137.223 123.131">
  <defs>
    <linearGradient id="linear-gradient" y1="0.674" x2="0.941" y2="0.661" gradientUnits="objectBoundingBox">
      <stop offset="0" stop-color="#43a937"/>
      <stop offset="1" stop-color="#233872"/>
    </linearGradient>
  </defs>
  <g id="Virtual_Sports_Recreational" data-name="Virtual Sports &amp; Recreational" transform="translate(16232 21526)">
    <path id="blob" d="M47.931,36.24c9.968-13.353,8.557-34.981-.376-47.3C38.716-23.378,22.26-26.2,5.9-37.3c-16.456-11-32.818-30.185-48.8-29.621-15.892.47-31.313,20.688-36.955,43.632-5.736,22.945-1.693,48.71,12.412,63,14.2,14.387,38.365,17.4,61.122,16.268C16.524,54.859,37.964,49.687,47.931,36.24Z" transform="translate(-16149.624 -21459.07)" fill="url(#linear-gradient)"/>
    <g id="Group_892" data-name="Group 892" transform="translate(6.002 -211.631)">
      <path id="Path_163" data-name="Path 163" d="M55.866,206.139a14.646,14.646,0,0,0-2.417-17.278,14.3,14.3,0,0,0-20.355-.094,5.581,5.581,0,0,1-3.97,1.647h-.258a5.581,5.581,0,0,1-3.97-1.647,14.3,14.3,0,0,0-20.355.094,14.657,14.657,0,0,0-3.219,15.554l.093.206L.168,211.014a8.809,8.809,0,0,0,6.853,10.345,9.323,9.323,0,0,0,6.525-1.294,8.741,8.741,0,0,0,3.74-5.623s.19-.981.2-1.039a14.28,14.28,0,0,0,7.365-3.9,5.707,5.707,0,0,1,4.021-1.7h.256a5.707,5.707,0,0,1,4.021,1.7,14.309,14.309,0,0,0,6.4,3.679l.249,1.261a8.741,8.741,0,0,0,3.74,5.623,9.621,9.621,0,0,0,6.525,1.294,8.81,8.81,0,0,0,6.853-10.345Zm-41.894,7.65a5.387,5.387,0,0,1-2.3,3.467,5.255,5.255,0,0,1-3.982.791,5.425,5.425,0,0,1-4.2-6.38l.556-2.822a14.683,14.683,0,0,0,9.962,4.8Zm35.416,4.258a5.258,5.258,0,0,1-3.982-.791,5.387,5.387,0,0,1-2.3-3.467l-.025-.128.156,0a14.242,14.242,0,0,0,9.936-4.009l.423,2.022A5.425,5.425,0,0,1,49.388,218.047ZM51.047,207a10.943,10.943,0,0,1-15.528.1,9.061,9.061,0,0,0-6.4-2.674h-.256a9.063,9.063,0,0,0-6.4,2.674A10.943,10.943,0,0,1,6.942,207a11.246,11.246,0,0,1,.005-15.773,10.917,10.917,0,0,1,15.561-.075,8.937,8.937,0,0,0,6.357,2.635h.258a8.939,8.939,0,0,0,6.357-2.635,10.916,10.916,0,0,1,15.561.075A11.246,11.246,0,0,1,51.047,207Zm0,0" transform="translate(-16198.001 -21439.832)" fill="#fff" stroke="rgba(61,148,66,0.25)" stroke-width="1"/>
      <path id="Path_164" data-name="Path 164" d="M195.807,79.95a1.689,1.689,0,0,0,1.2-2.877,11.559,11.559,0,0,0-16.464,0,1.689,1.689,0,0,0,2.4,2.376,8.18,8.18,0,0,1,11.661,0A1.684,1.684,0,0,0,195.807,79.95Zm0,0" transform="translate(-16357.783 -21341.395)" fill="#fff" stroke="rgba(61,148,66,0.25)" stroke-width="1"/>
      <path id="Path_165" data-name="Path 165" d="M219.561,143.523a6.046,6.046,0,0,0-4.326,1.809,1.689,1.689,0,0,0,2.4,2.376,2.7,2.7,0,0,1,3.849,0,1.689,1.689,0,0,0,2.4-2.376A6.045,6.045,0,0,0,219.561,143.523Zm0,0" transform="translate(-16388.568 -21403.42)" fill="#fff" stroke="rgba(61,148,66,0.25)" stroke-width="1"/>
      <path id="Path_166" data-name="Path 166" d="M132.8,8.684a16.107,16.107,0,0,1,22.953,0,1.689,1.689,0,1,0,2.4-2.376,19.484,19.484,0,0,0-27.756,0,1.689,1.689,0,1,0,2.4,2.376Zm0,0" transform="translate(-16313.284 -21276.5)" fill="#fff" stroke="rgba(61,148,66,0.25)" stroke-width="1"/>
      <path id="Path_167" data-name="Path 167" d="M86.06,266.724H83.87v-2.231a1.689,1.689,0,0,0-3.378,0v2.231H78.3a1.689,1.689,0,1,0,0,3.378h2.19v2.231a1.689,1.689,0,0,0,3.378,0V270.1h2.19a1.689,1.689,0,0,0,0-3.378Zm0,0" transform="translate(-16265.987 -21509.27)" fill="#fff" stroke="rgba(61,148,66,0.25)" stroke-width="1"/>
      <path id="Path_168" data-name="Path 168" d="M338.572,296.883a1.975,1.975,0,1,0-1.975,2A1.986,1.986,0,0,0,338.572,296.883Zm0,0" transform="translate(-16494.943 -21537.738)" fill="#fff" stroke="rgba(61,148,66,0.25)" stroke-width="1"/>
      <path id="Path_169" data-name="Path 169" d="M404.447,296.883a1.975,1.975,0,1,0-1.975,2A1.986,1.986,0,0,0,404.447,296.883Zm0,0" transform="translate(-16553.402 -21537.738)" fill="#fff" stroke="rgba(61,148,66,0.25)" stroke-width="1"/>
      <path id="Path_170" data-name="Path 170" d="M371.509,263.594a1.975,1.975,0,1,0-1.975,2A1.986,1.986,0,0,0,371.509,263.594Zm0,0" transform="translate(-16524.172 -21508.197)" fill="#fff" stroke="rgba(61,148,66,0.25)" stroke-width="1"/>
      <path id="Path_171" data-name="Path 171" d="M371.509,330.176a1.975,1.975,0,1,0-1.975,2A1.986,1.986,0,0,0,371.509,330.176Zm0,0" transform="translate(-16524.172 -21567.283)" fill="#fff" stroke="rgba(61,148,66,0.25)" stroke-width="1"/>
    </g>
  </g>
</svg>
