<svg xmlns="http://www.w3.org/2000/svg" xmlns:xlink="http://www.w3.org/1999/xlink" width="137.223" height="123.131" viewBox="0 0 137.223 123.131">
  <defs>
    <linearGradient id="linear-gradient" y1="0.674" x2="0.941" y2="0.661" gradientUnits="objectBoundingBox">
      <stop offset="0" stop-color="#43a937"/>
      <stop offset="1" stop-color="#233872"/>
    </linearGradient>
  </defs>
  <g id="Wellbeing_Awareness_" data-name="Wellbeing  Awareness  " transform="translate(16968 21526)">
    <path id="blob" d="M47.931,36.24c9.968-13.353,8.557-34.981-.376-47.3C38.716-23.378,22.26-26.2,5.9-37.3c-16.456-11-32.818-30.185-48.8-29.621-15.892.47-31.313,20.688-36.955,43.632-5.736,22.945-1.693,48.71,12.412,63,14.2,14.387,38.365,17.4,61.122,16.268C16.524,54.859,37.964,49.687,47.931,36.24Z" transform="translate(-16885.625 -21459.07)" fill="url(#linear-gradient)"/>
    <g id="heart-rate" transform="translate(-16931 -21491)">
      <g id="Group_12" data-name="Group 12" transform="translate(3.359 0)">
        <g id="Group_11" data-name="Group 11" transform="translate(0)">
          <path id="Path_150" data-name="Path 150" d="M94.962,20.235h-3.77A13.779,13.779,0,0,0,69.262,4.066L68.09,5.237,66.917,4.066a13.772,13.772,0,0,0-21.93,16.172h-3.77a1.12,1.12,0,1,0,0,2.239v0h5.25a13.966,13.966,0,0,0,.952,1.066L65.433,41.532a3.766,3.766,0,0,0,5.314,0L88.76,23.54a13.968,13.968,0,0,0,.952-1.066h5.25a1.12,1.12,0,1,0,0-2.239ZM69.163,39.95a1.522,1.522,0,0,1-2.148,0l-17.5-17.476h9.613a1.12,1.12,0,0,0,1.008-.614l2.149-4.3,3.625,10.861a1.12,1.12,0,0,0,1.061.765h.034a1.12,1.12,0,0,0,1.048-.83l3.3-12.352,1.244,5.6a1.12,1.12,0,0,0,1.99.429l2.272-3.023,1.423,2.847a1.12,1.12,0,0,0,1.008.618h7.374ZM88.587,20.238H79.978l-1.924-3.855a1.12,1.12,0,0,0-1.9-.171l-1.9,2.528-1.711-7.691a1.12,1.12,0,0,0-1.07-.876,1.135,1.135,0,0,0-1.105.83L66.846,24.173l-3.3-9.88a1.12,1.12,0,0,0-2.064-.147l-3.049,6.092H47.592A11.539,11.539,0,0,1,65.334,5.648L67.3,7.609a1.12,1.12,0,0,0,1.583,0l1.964-1.961a11.538,11.538,0,0,1,17.742,14.59Z" transform="translate(-40.098 0)" fill="#fff"/>
        </g>
      </g>
      <g id="Group_14" data-name="Group 14" transform="translate(0 28.061)">
        <g id="Group_13" data-name="Group 13" transform="translate(0)">
          <path id="Path_151" data-name="Path 151" d="M35.484,221.619l-4.83-2.758v-4.942a4.426,4.426,0,0,0-5.6-4.315v-4.632a4.479,4.479,0,0,0-8.957,0v9.265a21.4,21.4,0,0,0,9.55,17.822l3.886,2.589v3.873a1.12,1.12,0,1,0,2.239,0v-4.472a1.12,1.12,0,0,0-.5-.93L26.89,230.2a19.171,19.171,0,0,1-8.553-15.961v-9.265a2.239,2.239,0,1,1,4.479,0v6.019a4.432,4.432,0,0,0-1.12,2.928V218.4a1.12,1.12,0,0,0,2.239,0v-4.479a2.239,2.239,0,0,1,4.479,0v5.592a1.119,1.119,0,0,0,.56.971l5.395,3.079a8.161,8.161,0,0,1,4.123,7.087v7.872a1.12,1.12,0,1,0,2.239,0v-7.872A10.389,10.389,0,0,0,35.484,221.619Z" transform="translate(-16.098 -200.493)" fill="#fff"/>
        </g>
      </g>
      <g id="Group_16" data-name="Group 16" transform="translate(38.069 28.066)">
        <g id="Group_15" data-name="Group 15">
          <path id="Path_152" data-name="Path 152" d="M308.252,200.533a4.479,4.479,0,0,0-4.479,4.473v4.632a4.426,4.426,0,0,0-5.6,4.315V218.9l-4.83,2.758a10.389,10.389,0,0,0-5.247,9.029v7.872a1.12,1.12,0,1,0,2.239,0v-7.872a8.165,8.165,0,0,1,4.118-7.087l5.395-3.079a1.119,1.119,0,0,0,.56-.971v-5.592a2.239,2.239,0,0,1,4.479,0v4.479a1.12,1.12,0,0,0,2.239,0v-4.479a4.432,4.432,0,0,0-1.12-2.928v-6.019a2.239,2.239,0,0,1,4.479,0v9.265a19.179,19.179,0,0,1-8.553,15.961l-4.385,2.92a1.12,1.12,0,0,0-.5.93v4.472a1.12,1.12,0,1,0,2.239,0V234.68l3.886-2.589a21.413,21.413,0,0,0,9.554-17.821v-9.265A4.479,4.479,0,0,0,308.252,200.533Z" transform="translate(-288.098 -200.533)" fill="#fff"/>
        </g>
      </g>
    </g>
  </g>
</svg>
