<svg xmlns="http://www.w3.org/2000/svg" xmlns:xlink="http://www.w3.org/1999/xlink" width="1365.676" height="564.205" viewBox="0 0 1365.676 564.205">
  <defs>
    <clipPath id="clip-path">
      <rect x="117" y="-18" width="254.631" height="504.05" fill="none"/>
    </clipPath>
    <clipPath id="clip-path-2">
      <rect x="-28" y="-16" width="248" height="377" fill="none"/>
    </clipPath>
    <clipPath id="clip-path-3">
      <rect width="202" height="198" fill="none"/>
    </clipPath>
  </defs>
  <g id="Bg_Vectors3" data-name="Bg Vectors3" transform="translate(-0.324 -3477.48)">
    <g id="Scroll_Group_2" data-name="Scroll Group 2" transform="translate(-116.676 3495.479)" clip-path="url(#clip-path)" style="isolation: isolate">
      <path id="Path_614" data-name="Path 614" d="M11202.043,4155.794s100.123-41.49,157.342,11.074,62.979,81.725,71.925,168.646-37.321,163.938-92.476,157.272-88.511-69.813-70.187-157.272,53.524-187.434,143-265.822,137.834,18.9,137.834,18.9" transform="translate(-11201.086 -4036.653)" fill="none" stroke="#fcce3b" stroke-width="5" stroke-dasharray="15 10"/>
    </g>
    <g id="Scroll_Group_3" data-name="Scroll Group 3" transform="translate(1146 3680.686)" clip-path="url(#clip-path-2)" style="isolation: isolate">
      <g id="Group_445" data-name="Group 445" transform="translate(-739 -3543)" opacity="0.237">
        <circle id="Ellipse_35" data-name="Ellipse 35" cx="95.5" cy="95.5" r="95.5" transform="translate(837 3543)" fill="#fcce3b"/>
        <g id="Repeat_Grid_1" data-name="Repeat Grid 1" transform="translate(739 3670)" clip-path="url(#clip-path-3)">
          <g transform="translate(-13396 -2022)">
            <circle id="Ellipse_37" data-name="Ellipse 37" cx="4" cy="4" r="4" transform="translate(13507 2022)" fill="#0d3c47"/>
            <circle id="Ellipse_38" data-name="Ellipse 38" cx="4" cy="4" r="4" transform="translate(13470 2022)" fill="#0d3c47"/>
            <circle id="Ellipse_39" data-name="Ellipse 39" cx="4" cy="4" r="4" transform="translate(13433 2022)" fill="#0d3c47"/>
            <circle id="Ellipse_40" data-name="Ellipse 40" cx="4" cy="4" r="4" transform="translate(13396 2022)" fill="#0d3c47"/>
          </g>
          <g transform="translate(-13248 -2022)">
            <circle id="Ellipse_37-2" data-name="Ellipse 37" cx="4" cy="4" r="4" transform="translate(13507 2022)" fill="#0d3c47"/>
            <circle id="Ellipse_38-2" data-name="Ellipse 38" cx="4" cy="4" r="4" transform="translate(13470 2022)" fill="#0d3c47"/>
            <circle id="Ellipse_39-2" data-name="Ellipse 39" cx="4" cy="4" r="4" transform="translate(13433 2022)" fill="#0d3c47"/>
            <circle id="Ellipse_40-2" data-name="Ellipse 40" cx="4" cy="4" r="4" transform="translate(13396 2022)" fill="#0d3c47"/>
          </g>
          <g transform="translate(-13396 -1985)">
            <circle id="Ellipse_37-3" data-name="Ellipse 37" cx="4" cy="4" r="4" transform="translate(13507 2022)" fill="#0d3c47"/>
            <circle id="Ellipse_38-3" data-name="Ellipse 38" cx="4" cy="4" r="4" transform="translate(13470 2022)" fill="#0d3c47"/>
            <circle id="Ellipse_39-3" data-name="Ellipse 39" cx="4" cy="4" r="4" transform="translate(13433 2022)" fill="#0d3c47"/>
            <circle id="Ellipse_40-3" data-name="Ellipse 40" cx="4" cy="4" r="4" transform="translate(13396 2022)" fill="#0d3c47"/>
          </g>
          <g transform="translate(-13248 -1985)">
            <circle id="Ellipse_37-4" data-name="Ellipse 37" cx="4" cy="4" r="4" transform="translate(13507 2022)" fill="#0d3c47"/>
            <circle id="Ellipse_38-4" data-name="Ellipse 38" cx="4" cy="4" r="4" transform="translate(13470 2022)" fill="#0d3c47"/>
            <circle id="Ellipse_39-4" data-name="Ellipse 39" cx="4" cy="4" r="4" transform="translate(13433 2022)" fill="#0d3c47"/>
            <circle id="Ellipse_40-4" data-name="Ellipse 40" cx="4" cy="4" r="4" transform="translate(13396 2022)" fill="#0d3c47"/>
          </g>
          <g transform="translate(-13396 -1948)">
            <circle id="Ellipse_37-5" data-name="Ellipse 37" cx="4" cy="4" r="4" transform="translate(13507 2022)" fill="#0d3c47"/>
            <circle id="Ellipse_38-5" data-name="Ellipse 38" cx="4" cy="4" r="4" transform="translate(13470 2022)" fill="#0d3c47"/>
            <circle id="Ellipse_39-5" data-name="Ellipse 39" cx="4" cy="4" r="4" transform="translate(13433 2022)" fill="#0d3c47"/>
            <circle id="Ellipse_40-5" data-name="Ellipse 40" cx="4" cy="4" r="4" transform="translate(13396 2022)" fill="#0d3c47"/>
          </g>
          <g transform="translate(-13248 -1948)">
            <circle id="Ellipse_37-6" data-name="Ellipse 37" cx="4" cy="4" r="4" transform="translate(13507 2022)" fill="#0d3c47"/>
            <circle id="Ellipse_38-6" data-name="Ellipse 38" cx="4" cy="4" r="4" transform="translate(13470 2022)" fill="#0d3c47"/>
            <circle id="Ellipse_39-6" data-name="Ellipse 39" cx="4" cy="4" r="4" transform="translate(13433 2022)" fill="#0d3c47"/>
            <circle id="Ellipse_40-6" data-name="Ellipse 40" cx="4" cy="4" r="4" transform="translate(13396 2022)" fill="#0d3c47"/>
          </g>
          <g transform="translate(-13396 -1911)">
            <circle id="Ellipse_37-7" data-name="Ellipse 37" cx="4" cy="4" r="4" transform="translate(13507 2022)" fill="#0d3c47"/>
            <circle id="Ellipse_38-7" data-name="Ellipse 38" cx="4" cy="4" r="4" transform="translate(13470 2022)" fill="#0d3c47"/>
            <circle id="Ellipse_39-7" data-name="Ellipse 39" cx="4" cy="4" r="4" transform="translate(13433 2022)" fill="#0d3c47"/>
            <circle id="Ellipse_40-7" data-name="Ellipse 40" cx="4" cy="4" r="4" transform="translate(13396 2022)" fill="#0d3c47"/>
          </g>
          <g transform="translate(-13248 -1911)">
            <circle id="Ellipse_37-8" data-name="Ellipse 37" cx="4" cy="4" r="4" transform="translate(13507 2022)" fill="#0d3c47"/>
            <circle id="Ellipse_38-8" data-name="Ellipse 38" cx="4" cy="4" r="4" transform="translate(13470 2022)" fill="#0d3c47"/>
            <circle id="Ellipse_39-8" data-name="Ellipse 39" cx="4" cy="4" r="4" transform="translate(13433 2022)" fill="#0d3c47"/>
            <circle id="Ellipse_40-8" data-name="Ellipse 40" cx="4" cy="4" r="4" transform="translate(13396 2022)" fill="#0d3c47"/>
          </g>
          <g transform="translate(-13396 -1874)">
            <circle id="Ellipse_37-9" data-name="Ellipse 37" cx="4" cy="4" r="4" transform="translate(13507 2022)" fill="#0d3c47"/>
            <circle id="Ellipse_38-9" data-name="Ellipse 38" cx="4" cy="4" r="4" transform="translate(13470 2022)" fill="#0d3c47"/>
            <circle id="Ellipse_39-9" data-name="Ellipse 39" cx="4" cy="4" r="4" transform="translate(13433 2022)" fill="#0d3c47"/>
            <circle id="Ellipse_40-9" data-name="Ellipse 40" cx="4" cy="4" r="4" transform="translate(13396 2022)" fill="#0d3c47"/>
          </g>
          <g transform="translate(-13248 -1874)">
            <circle id="Ellipse_37-10" data-name="Ellipse 37" cx="4" cy="4" r="4" transform="translate(13507 2022)" fill="#0d3c47"/>
            <circle id="Ellipse_38-10" data-name="Ellipse 38" cx="4" cy="4" r="4" transform="translate(13470 2022)" fill="#0d3c47"/>
            <circle id="Ellipse_39-10" data-name="Ellipse 39" cx="4" cy="4" r="4" transform="translate(13433 2022)" fill="#0d3c47"/>
            <circle id="Ellipse_40-10" data-name="Ellipse 40" cx="4" cy="4" r="4" transform="translate(13396 2022)" fill="#0d3c47"/>
          </g>
          <g transform="translate(-13396 -1837)">
            <circle id="Ellipse_37-11" data-name="Ellipse 37" cx="4" cy="4" r="4" transform="translate(13507 2022)" fill="#0d3c47"/>
            <circle id="Ellipse_38-11" data-name="Ellipse 38" cx="4" cy="4" r="4" transform="translate(13470 2022)" fill="#0d3c47"/>
            <circle id="Ellipse_39-11" data-name="Ellipse 39" cx="4" cy="4" r="4" transform="translate(13433 2022)" fill="#0d3c47"/>
            <circle id="Ellipse_40-11" data-name="Ellipse 40" cx="4" cy="4" r="4" transform="translate(13396 2022)" fill="#0d3c47"/>
          </g>
          <g transform="translate(-13248 -1837)">
            <circle id="Ellipse_37-12" data-name="Ellipse 37" cx="4" cy="4" r="4" transform="translate(13507 2022)" fill="#0d3c47"/>
            <circle id="Ellipse_38-12" data-name="Ellipse 38" cx="4" cy="4" r="4" transform="translate(13470 2022)" fill="#0d3c47"/>
            <circle id="Ellipse_39-12" data-name="Ellipse 39" cx="4" cy="4" r="4" transform="translate(13433 2022)" fill="#0d3c47"/>
            <circle id="Ellipse_40-12" data-name="Ellipse 40" cx="4" cy="4" r="4" transform="translate(13396 2022)" fill="#0d3c47"/>
          </g>
        </g>
      </g>
    </g>
  </g>
</svg>
