<svg xmlns="http://www.w3.org/2000/svg" xmlns:xlink="http://www.w3.org/1999/xlink" width="1366.466" height="479.998" viewBox="0 0 1366.466 479.998">
  <defs>
    <clipPath id="clip-path">
      <rect x="67" y="-31" width="178.873" height="367.362" fill="none"/>
    </clipPath>
  </defs>
  <g id="Contact_Us_Bg_Vector1" data-name="Contact Us Bg Vector1" transform="translate(0.202 -5361.001)">
    <rect id="Rectangle_152" data-name="Rectangle 152" width="1366" height="441.858" transform="translate(0 5399.141)" fill="#223771"/>
    <g id="Scroll_Group_4" data-name="Scroll Group 4" transform="translate(-67.202 5504.498)" clip-path="url(#clip-path)" style="isolation: isolate">
      <path id="Path_585" data-name="Path 585" d="M11202.044,4286.217s106.122,20.793,137.953-9.624,55.22-53.64,63.062-129.177-44.368-108.03-73.058-107.122-85.626,31.117-69.56,107.122,58.776,156.762,137.225,224.882,91.318,3.551,91.318,3.551" transform="translate(-11201.563 -4037.775)" fill="none" stroke="#fdcf3c" stroke-width="5" stroke-dasharray="15 10"/>
    </g>
    <path id="Path_586" data-name="Path 586" d="M11636.579,4313.8s-64.991-138.465-129.868-152.87c-48.151-10.691-102.259.61-125.312,21.787-53.986,49.595-59.422,77.108-67.862,159.121s58.233,117.877,90,113.69,80.765-31.17,63.476-113.69-54.391-159.011-138.81-232.972-136.2,0-136.2,0" transform="translate(-10272.578 1287.672)" fill="none" stroke="#fdcf3c" stroke-width="5" stroke-dasharray="15 10"/>
  </g>
</svg>
